<svg width="16" height="8" viewBox="0 0 16 8" fill="none" xmlns="http://www.w3.org/2000/svg">
<path d="M15.404 0.708792C15.3406 0.569755 15.2477 0.443563 15.1306 0.337495C15.0145 0.230554 14.8764 0.145673 14.7242 0.0877471C14.572 0.0298219 14.4088 -9.05977e-07 14.244 -8.98771e-07C14.0791 -8.91565e-07 13.9159 0.0298219 13.7637 0.0877472C13.6115 0.145673 13.4734 0.230554 13.3573 0.337495L8 5.24365L2.64268 0.337495C2.52659 0.230554 2.38847 0.145673 2.23629 0.0877477C2.08411 0.0298225 1.92089 -3.60113e-07 1.75603 -3.52907e-07C1.59118 -3.457e-07 1.42795 0.0298225 1.27578 0.0877477C1.1236 0.145673 0.985484 0.230554 0.869392 0.337495C0.752345 0.443563 0.65944 0.569755 0.59604 0.708793C0.532641 0.84783 0.500001 0.996961 0.500001 1.14758C0.500001 1.2982 0.532641 1.44733 0.59604 1.58637C0.65944 1.72541 0.752345 1.8516 0.869392 1.95767L7.11336 7.6625C7.22945 7.76945 7.36757 7.85433 7.51974 7.91225C7.67192 7.97018 7.83514 8 8 8C8.16486 8 8.32808 7.97018 8.48026 7.91225C8.63243 7.85433 8.77055 7.76945 8.88664 7.6625L15.1306 1.95767C15.2477 1.8516 15.3406 1.72541 15.404 1.58637C15.4674 1.44733 15.5 1.2982 15.5 1.14758C15.5 0.99696 15.4674 0.847829 15.404 0.708792Z" fill="#A2A7AF"/>
</svg>
