<svg width="20" height="19" viewBox="0 0 20 19" fill="none" xmlns="http://www.w3.org/2000/svg">
    <g filter="url(#filter0_d_916_511)">
        <path
            d="M2.50001 4V17.3333H17.5V19H2.50001C2.05798 19 1.63406 18.8244 1.3215 18.5118C1.00894 18.1993 0.833344 17.7754 0.833344 17.3333V4H2.50001ZM13.3333 6.5H17.9167L13.3333 1.91666V6.5ZM5.83334 0.666664H14.1667L19.1667 5.66666V14C19.1667 14.442 18.9911 14.8659 18.6785 15.1785C18.366 15.4911 17.942 15.6667 17.5 15.6667H5.83334C5.39132 15.6667 4.96739 15.4911 4.65483 15.1785C4.34227 14.8659 4.16668 14.442 4.16668 14V2.33333C4.16668 1.8913 4.34227 1.46738 4.65483 1.15482C4.96739 0.842259 5.39132 0.666664 5.83334 0.666664ZM5.83334 2.33333V14H17.5V8.16666H11.6667V2.33333H5.83334Z"
            fill="#A2A7AF" />
    </g>
    <defs>
        <filter id="filter0_d_916_511" x="-3.16666" y="0.666664" width="26.3333" height="26.3333"
            filterUnits="userSpaceOnUse" color-interpolation-filters="sRGB">
            <feFlood flood-opacity="0" result="BackgroundImageFix" />
            <feColorMatrix in="SourceAlpha" type="matrix"
                values="0 0 0 0 0 0 0 0 0 0 0 0 0 0 0 0 0 0 127 0" result="hardAlpha" />
            <feOffset dy="4" />
            <feGaussianBlur stdDeviation="2" />
            <feComposite in2="hardAlpha" operator="out" />
            <feColorMatrix type="matrix" values="0 0 0 0 0 0 0 0 0 0 0 0 0 0 0 0 0 0 0.25 0" />
            <feBlend mode="normal" in2="BackgroundImageFix" result="effect1_dropShadow_916_511" />
            <feBlend mode="normal" in="SourceGraphic" in2="effect1_dropShadow_916_511"
                result="shape" />
        </filter>
    </defs>
</svg>