<svg width="24" height="24" viewBox="0 0 24 24" fill="none" xmlns="http://www.w3.org/2000/svg">
<path d="M7.59098 9.99099C7.16903 10.4129 6.59673 10.65 5.99999 10.65C5.40326 10.65 4.83096 10.4129 4.409 9.99099C3.98705 9.56904 3.74999 8.99674 3.74999 8.4C3.74999 7.80327 3.98705 7.23097 4.409 6.80901C4.83096 6.38706 5.40326 6.15 5.99999 6.15C6.59673 6.15 7.16903 6.38706 7.59098 6.80901C8.01294 7.23097 8.24999 7.80327 8.24999 8.4C8.24999 8.99674 8.01294 9.56904 7.59098 9.99099ZM5.99999 12.15C6.49245 12.15 6.98009 12.053 7.43506 11.8646C7.89003 11.6761 8.30342 11.3999 8.65164 11.0517C8.99986 10.7034 9.27609 10.29 9.46454 9.83507C9.653 9.38009 9.74999 8.89246 9.74999 8.4C9.74999 7.90755 9.653 7.41991 9.46454 6.96494C9.27609 6.50997 8.99986 6.09657 8.65164 5.74835C8.30342 5.40013 7.89003 5.12391 7.43506 4.93546C6.98009 4.747 6.49245 4.65 5.99999 4.65C5.00543 4.65 4.0516 5.04509 3.34834 5.74835C2.64508 6.45161 2.24999 7.40544 2.24999 8.4C2.24999 9.39456 2.64508 10.3484 3.34834 11.0517C4.0516 11.7549 5.00543 12.15 5.99999 12.15Z" fill="#A2A7AF" stroke="#A2A7AF" stroke-width="0.3"/>
<path d="M4.73072 11.631L4.7307 11.631L4.32527 12.0353C3.57283 12.7879 3.15009 13.8086 3.14999 14.8728C3.14999 14.8728 3.14999 14.8728 3.14999 14.8728V17.1C3.14999 17.2989 3.07097 17.4897 2.93032 17.6303M4.73072 11.631L2.93032 17.6303M4.73072 11.631C4.80056 11.5613 4.85598 11.4786 4.89379 11.3875C4.9316 11.2963 4.95106 11.1987 4.95106 11.1C4.95106 11.0014 4.9316 10.9037 4.89379 10.8126C4.856 10.7215 4.80064 10.6388 4.73085 10.5691C4.66121 10.4994 4.5785 10.444 4.48744 10.4062C4.39632 10.3684 4.29864 10.3489 4.19999 10.3489C4.10134 10.3489 4.00365 10.3684 3.91254 10.4062C3.82142 10.444 3.73866 10.4994 3.66899 10.5693L3.66896 10.5693L3.26471 10.9747C3.2647 10.9748 3.26468 10.9748 3.26466 10.9748C2.23096 12.0087 1.65016 13.4108 1.64999 14.8728V14.8728M4.73072 11.631L1.64999 14.8728M2.93032 17.6303C2.78967 17.771 2.5989 17.85 2.39999 17.85C2.20108 17.85 2.01031 17.771 1.86966 17.6303C1.72901 17.4897 1.64999 17.2989 1.64999 17.1V14.8728M2.93032 17.6303L1.64999 14.8728M18.6447 10.51L18.5062 10.4526C18.544 10.3614 18.5994 10.2787 18.6693 10.209M18.6447 10.51L18.97 10.1847M18.6447 10.51L18.5062 10.4526C18.4684 10.5437 18.4489 10.6414 18.4489 10.74C18.4489 10.8387 18.4684 10.9363 18.5062 11.0275L18.6447 10.97L18.5062 11.0275C18.544 11.1186 18.5994 11.2013 18.6693 11.271L18.6693 11.271M18.6447 10.51L18.6693 11.271M18.6693 10.209L18.7752 10.3152L18.669 10.2093C18.6691 10.2092 18.6692 10.2091 18.6693 10.209ZM18.6693 10.209C18.7389 10.1393 18.8215 10.084 18.9125 10.0462L18.97 10.1847M18.97 10.1847L18.9125 10.0462C19.0037 10.0084 19.1013 9.98893 19.2 9.98893C19.2986 9.98893 19.3963 10.0084 19.4874 10.0462L19.4299 10.1847M18.97 10.1847H19.4299M19.4299 10.1847L19.4874 10.0462C19.5786 10.084 19.6613 10.1394 19.731 10.2093M19.4299 10.1847L19.731 10.2093M18.6693 11.271L19.0747 11.6753C19.0747 11.6753 19.0748 11.6753 19.0748 11.6754C19.8272 12.428 20.2499 13.4486 20.25 14.5128V17.1C20.25 17.2989 20.329 17.4897 20.4697 17.6303C20.6103 17.771 20.8011 17.85 21 17.85C21.1989 17.85 21.3897 17.771 21.5303 17.6303C21.671 17.4897 21.75 17.2989 21.75 17.1V14.5128C21.7498 13.0508 21.169 11.6486 20.1353 10.6147L19.731 10.2093L19.731 10.2093M18.6693 11.271L19.731 10.2093" fill="#A2A7AF" stroke="#A2A7AF" stroke-width="0.3"/>
<path d="M16.8 10.65C16.2032 10.65 15.6309 10.4129 15.209 9.99099C14.787 9.56904 14.55 8.99674 14.55 8.4C14.55 7.80327 14.787 7.23097 15.209 6.80901C15.6309 6.38706 16.2032 6.15 16.8 6.15C17.3967 6.15 17.969 6.38706 18.391 6.80901C18.8129 7.23097 19.05 7.80327 19.05 8.4C19.05 8.99674 18.8129 9.56904 18.391 9.99099C17.969 10.4129 17.3967 10.65 16.8 10.65ZM15.3649 11.8646C15.8199 12.053 16.3075 12.15 16.8 12.15C17.7945 12.15 18.7484 11.7549 19.4516 11.0517C20.1549 10.3484 20.55 9.39456 20.55 8.4C20.55 7.40544 20.1549 6.45161 19.4516 5.74835C18.7484 5.04509 17.7945 4.65 16.8 4.65C16.3075 4.65 15.8199 4.747 15.3649 4.93546C14.9099 5.12391 14.4966 5.40013 14.1483 5.74835C13.8001 6.09657 13.5239 6.50997 13.3354 6.96494C13.147 7.41991 13.05 7.90755 13.05 8.4C13.05 8.89246 13.147 9.38009 13.3354 9.83507C13.5239 10.29 13.8001 10.7034 14.1483 11.0517C14.4966 11.3999 14.9099 11.6761 15.3649 11.8646ZM9.38473 16.8847C9.91921 16.3503 10.6441 16.05 11.4 16.05C11.7742 16.05 12.1449 16.1237 12.4906 16.2669C12.8364 16.4102 13.1506 16.6201 13.4152 16.8847C13.6799 17.1494 13.8898 17.4636 14.033 17.8094C14.1763 18.1551 14.25 18.5257 14.25 18.9V20.46C14.25 20.6589 14.329 20.8497 14.4697 20.9903C14.6103 21.131 14.8011 21.21 15 21.21C15.1989 21.21 15.3897 21.131 15.5303 20.9903C15.671 20.8497 15.75 20.6589 15.75 20.46V18.9C15.75 17.7463 15.2917 16.6399 14.4759 15.8241C13.6601 15.0083 12.5537 14.55 11.4 14.55C10.2463 14.55 9.13985 15.0083 8.32407 15.8241C7.50828 16.6399 7.04998 17.7463 7.04998 18.9V20.46C7.04998 20.6589 7.129 20.8497 7.26965 20.9903C7.4103 21.131 7.60107 21.21 7.79998 21.21C7.99889 21.21 8.18966 21.131 8.33031 20.9903C8.47096 20.8497 8.54998 20.6589 8.54998 20.46V18.9C8.54998 18.1441 8.85025 17.4192 9.38473 16.8847Z" fill="#A2A7AF" stroke="#A2A7AF" stroke-width="0.3"/>
<path d="M12.991 13.291C12.569 13.713 11.9967 13.95 11.4 13.95C10.8033 13.95 10.231 13.713 9.809 13.291C9.38704 12.869 9.14999 12.2967 9.14999 11.7C9.14999 11.1033 9.38704 10.531 9.809 10.109C10.231 9.68706 10.8033 9.45001 11.4 9.45001C11.9967 9.45001 12.569 9.68706 12.991 10.109C13.4129 10.531 13.65 11.1033 13.65 11.7C13.65 12.2967 13.4129 12.869 12.991 13.291ZM11.4 15.45C12.3945 15.45 13.3484 15.0549 14.0516 14.3517C14.7549 13.6484 15.15 12.6946 15.15 11.7C15.15 10.7054 14.7549 9.75162 14.0516 9.04836C13.3484 8.34509 12.3945 7.95001 11.4 7.95001C10.4054 7.95001 9.4516 8.34509 8.74834 9.04836C8.04508 9.75162 7.64999 10.7054 7.64999 11.7C7.64999 12.6946 8.04508 13.6484 8.74834 14.3517C9.4516 15.0549 10.4054 15.45 11.4 15.45Z" fill="#A2A7AF" stroke="#A2A7AF" stroke-width="0.3"/>
</svg>
