<svg width="24" height="20" viewBox="0 0 24 20" fill="none" xmlns="http://www.w3.org/2000/svg">
    <g filter="url(#filter0_d_916_505)">
        <path
            d="M15.4171 12.7357C16.7315 13.3431 17.8523 14.2891 18.6593 15.4725C19.4662 16.6558 19.9289 18.0318 19.9976 19.4529C20.0068 19.5831 19.9893 19.7138 19.9462 19.8372C19.903 19.9607 19.8351 20.0745 19.7465 20.1719C19.6578 20.2693 19.5501 20.3485 19.4298 20.4046C19.3095 20.4608 19.1789 20.4928 19.0457 20.4989C18.9126 20.505 18.7795 20.485 18.6543 20.4401C18.5292 20.3952 18.4144 20.3262 18.3169 20.2373C18.2193 20.1484 18.1409 20.0413 18.0862 19.9223C18.0315 19.8033 18.0016 19.6748 17.9983 19.5444C17.9255 18.0349 17.2617 16.6109 16.1446 15.5678C15.0275 14.5248 13.5429 13.9429 11.999 13.9429C10.4551 13.9429 8.97048 14.5248 7.85336 15.5678C6.73624 16.6109 6.0724 18.0349 5.99964 19.5444C5.98166 19.7999 5.86218 20.0383 5.6668 20.2087C5.47141 20.379 5.21565 20.4677 4.95428 20.4557C4.69291 20.4438 4.44671 20.3321 4.2684 20.1447C4.0901 19.9573 3.99386 19.7089 4.0003 19.4529C4.06895 18.0319 4.5314 16.656 5.3381 15.4727C6.14481 14.2894 7.26533 13.3432 8.57955 12.7357C7.73739 12.0482 7.13206 11.1234 6.84589 10.0872C6.55972 9.05104 6.6066 7.95372 6.98017 6.94453C7.35374 5.93534 8.03585 5.06327 8.93372 4.44696C9.83159 3.83064 10.9016 3.5 11.9983 3.5C13.095 3.5 14.165 3.83064 15.0629 4.44696C15.9608 5.06327 16.6429 5.93534 17.0164 6.94453C17.39 7.95372 17.4369 9.05104 17.1507 10.0872C16.8645 11.1234 16.2592 12.0482 15.4171 12.7357ZM15.3356 8.72136C15.3356 7.85521 14.9841 7.02453 14.3583 6.41206C13.7326 5.7996 12.8839 5.45552 11.999 5.45552C11.114 5.45552 10.2653 5.7996 9.63959 6.41206C9.01384 7.02453 8.6623 7.85521 8.6623 8.72136C8.6623 9.58752 9.01384 10.4182 9.63959 11.0307C10.2653 11.6431 11.114 11.9872 11.999 11.9872C12.8839 11.9872 13.7326 11.6431 14.3583 11.0307C14.9841 10.4182 15.3356 9.58752 15.3356 8.72136Z"
            fill="#A2A7AF" />
    </g>
    <defs>
        <filter id="filter0_d_916_505" x="0" y="-10" width="24" height="40"
            filterUnits="userSpaceOnUse" color-interpolation-filters="sRGB">
            <feFlood flood-opacity="0" result="BackgroundImageFix" />
            <feColorMatrix in="SourceAlpha" type="matrix"
                values="0 0 0 0 0 0 0 0 0 0 0 0 0 0 0 0 0 0 127 0" result="hardAlpha" />
            <feOffset dy="4" />
            <feGaussianBlur stdDeviation="2" />
            <feComposite in2="hardAlpha" operator="out" />
            <feColorMatrix type="matrix" values="0 0 0 0 0 0 0 0 0 0 0 0 0 0 0 0 0 0 0.25 0" />
            <feBlend mode="normal" in2="BackgroundImageFix" result="effect1_dropShadow_916_505" />
            <feBlend mode="normal" in="SourceGraphic" in2="effect1_dropShadow_916_505"
                result="shape" />
        </filter>
    </defs>
</svg>