<svg width="20" height="20" viewBox="0 0 20 20" fill="none" xmlns="http://www.w3.org/2000/svg">
<path d="M0.833344 15.625V8.89844C0.833344 8.64844 0.879177 8.41031 0.970844 8.18406C1.06251 7.95781 1.19237 7.75844 1.36043 7.58594L5.02709 3.83594C5.21043 3.64844 5.41668 3.50781 5.64584 3.41406C5.87501 3.32031 6.10418 3.27344 6.33334 3.27344C6.56251 3.27344 6.79168 3.32031 7.02084 3.41406C7.25001 3.50781 7.45626 3.64844 7.63959 3.83594L11.3063 7.58594C11.4743 7.75781 11.6042 7.95719 11.6958 8.18406C11.7875 8.41094 11.8333 8.64906 11.8333 8.89844V15.625C11.8333 16.1406 11.654 16.5822 11.2953 16.9497C10.9365 17.3172 10.5048 17.5006 10 17.5H2.66668C2.16251 17.5 1.73107 17.3166 1.37234 16.9497C1.01362 16.5828 0.833955 16.1412 0.833344 15.625ZM2.66668 15.625H5.41668V13.75C5.41668 13.4844 5.50468 13.2619 5.68068 13.0825C5.85668 12.9031 6.07423 12.8131 6.33334 12.8125C6.59245 12.8119 6.81032 12.9019 6.98693 13.0825C7.16354 13.2631 7.25123 13.4856 7.25001 13.75V15.625H10V8.89844L6.33334 5.14844L2.66668 8.89844V15.625ZM13.6667 16.5625V7.35156L10.4813 4.09375C10.191 3.79688 10.1222 3.45688 10.275 3.07375C10.4278 2.69063 10.7104 2.49938 11.1229 2.5C11.2451 2.5 11.3674 2.5275 11.4896 2.5825C11.6118 2.6375 11.7111 2.70375 11.7875 2.78125L14.9729 6.03906C15.141 6.21094 15.2708 6.41031 15.3625 6.63719C15.4542 6.86406 15.5 7.10219 15.5 7.35156V16.5625C15.5 16.8281 15.412 17.0509 15.236 17.2309C15.06 17.4109 14.8425 17.5006 14.5833 17.5C14.3242 17.4994 14.1067 17.4094 13.9307 17.23C13.7547 17.0506 13.6667 16.8281 13.6667 16.5625ZM17.3333 16.5625V5.80469L15.6604 4.09375C15.3701 3.79688 15.3014 3.45688 15.4542 3.07375C15.607 2.69063 15.8896 2.49938 16.3021 2.5C16.4243 2.5 16.5465 2.5275 16.6688 2.5825C16.791 2.6375 16.8903 2.70375 16.9667 2.78125L18.6396 4.49219C18.8076 4.66406 18.9375 4.86344 19.0292 5.09031C19.1208 5.31719 19.1667 5.55531 19.1667 5.80469V16.5625C19.1667 16.8281 19.0787 17.0509 18.9027 17.2309C18.7267 17.4109 18.5091 17.5006 18.25 17.5C17.9909 17.4994 17.7733 17.4094 17.5973 17.23C17.4213 17.0506 17.3333 16.8281 17.3333 16.5625ZM6.33334 10.9375C6.07362 10.9375 5.85607 10.8475 5.68068 10.6675C5.50529 10.4875 5.41729 10.265 5.41668 10C5.41607 9.735 5.50407 9.5125 5.68068 9.3325C5.85729 9.1525 6.07484 9.0625 6.33334 9.0625C6.59184 9.0625 6.8097 9.1525 6.98693 9.3325C7.16415 9.5125 7.25184 9.735 7.25001 10C7.24818 10.265 7.16018 10.4878 6.98601 10.6684C6.81184 10.8491 6.59429 10.9387 6.33334 10.9375Z" fill="#A2A7AF"/>
</svg>
